Coordinates
version=1
nRows=26
nColumns=22
inDegrees=yes

Units are S.I. units (second, meters, Newtons, ...)
If the header above contains a line with 'inDegrees', this indicates whether rotational values are in degrees (yes) or radians (no).

endheader
time	pelvis_tilt	pelvis_list	pelvis_rotation	pelvis_tx	pelvis_ty	pelvis_tz	hip_flexion_r	hip_adduction_r	hip_rotation_r	knee_angle_r	ankle_angle_r	subtalar_angle_r	hip_flexion_l	hip_adduction_l	hip_rotation_l	knee_angle_l	ankle_angle_l	subtalar_angle_l	lumbar_extension	lumbar_bending	lumbar_rotation
      2.80000000	      0.88395957	     -1.03171672	     -0.18686463	     -0.25696296	      1.07943687	     -0.27353084	      2.84283468	      3.89226260	     -5.71297482	    -16.48308388	     11.60260301	     -7.84692845	     16.92487174	     -4.02333525	      1.47601813	    -45.22665863	      9.48120694	     -0.15611795	     -9.25847201	     -0.68061803	     -3.64360792
      2.81000000	      0.97408183	     -1.34282130	     -0.23825368	     -0.26324166	      1.07952234	     -0.27367785	      3.03628645	      4.20870560	     -5.71915589	    -16.32786848	     11.23869043	     -7.91611647	     16.24436661	     -4.14669836	      2.13879226	    -46.39798219	      9.30920558	      0.24483481	     -9.22448844	     -0.41439366	     -3.78065809
      2.82000000	      1.08112784	     -1.63484493	     -0.28623694	     -0.26950184	      1.07961919	     -0.27388316	      3.21518990	      4.50275539	     -5.72682210	    -16.18141270	     10.90109108	     -8.01174936	     15.49672890	     -4.25312189	      2.76182925	    -47.48130239	      9.07293391	      0.91819056	     -9.20063399	     -0.17634225	     -3.91970083
      2.83000000	      1.18833277	     -1.96179199	     -0.31307369	     -0.27577025	      1.07968660	     -0.27417574	      3.39922443	      4.83156300	     -5.74008240	    -16.04188350	     10.51033407	     -8.06962438	     14.71468235	     -4.40285743	      3.34647034	    -48.48596437	      8.80084624	      1.41031127	     -9.17006148	      0.10646473	     -4.10215698
      2.84000000	      1.31639682	     -2.24229806	     -0.35530936	     -0.28206251	      1.07977837	     -0.27450203	      3.57677889	      5.10779204	     -5.74706164	    -15.93024248	     10.16051499	     -8.16230673	     13.85897955	     -4.51207479	      3.86958764	    -49.37611026	      8.44400933	      2.28283990	     -9.16252590	      0.32772578	     -4.27843399
      2.85000000	      1.43126170	     -2.52842147	     -0.38290624	     -0.28838516	      1.07982328	     -0.27492584	      3.77714827	      5.38568979	     -5.75651462	    -15.83217709	      9.78676203	     -8.23972177	     12.98252126	     -4.62853721	      4.35733822	    -50.16320103	      8.05938406	      3.10814101	     -9.13444803	      0.56106636	     -4.47980112
      2.86000000	      1.53167823	     -2.82753065	     -0.38276826	     -0.29473782	      1.07982610	     -0.27545371	      3.98285065	      5.67544375	     -5.77165238	    -15.70962163	      9.38203614	     -8.30836513	     12.08736502	     -4.75107632	      4.84712915	    -50.83568052	      7.67389721	      3.93950474	     -9.08678050	      0.81428375	     -4.71858083
      2.87000000	      1.63256419	     -3.06349564	     -0.41938511	     -0.30116822	      1.07981276	     -0.27601204	      4.22503244	      5.88910230	     -5.78812386	    -15.65156390	      9.02169164	     -8.38707455	     11.14645054	     -4.82090544	      5.23734703	    -51.36944486	      7.24696518	      5.06452616	     -9.04469971	      0.99073097	     -4.93257720
      2.88000000	      1.70571724	     -3.31538408	     -0.41402323	     -0.30766252	      1.07972949	     -0.27671342	      4.47806531	      6.11570721	     -5.81308411	    -15.54902469	      8.64366468	     -8.44365787	     10.21547031	     -4.88920065	      5.65882032	    -51.78776127	      6.84044123	      6.12058570	     -8.96999090	      1.19306653	     -5.17250553
      2.89000000	      1.76618353	     -3.51673915	     -0.44859563	     -0.31427809	      1.07959936	     -0.27744678	      4.78629084	      6.27802823	     -5.84985251	    -15.51323272	      8.28290251	     -8.48893224	      9.26473064	     -4.91792452	      5.97885114	    -52.06586521	      6.43502143	      7.35719457	     -8.89102787	      1.33583386	     -5.38524830
      2.90000000	      1.80828317	     -3.72261391	     -0.44600537	     -0.32099845	      1.07940340	     -0.27831384	      5.10863608	      6.43835840	     -5.91405064	    -15.45428830	      7.92065270	     -8.51250753	      8.32539399	     -4.94289595	      6.30626403	    -52.22144021	      6.03661172	      8.54637306	     -8.79661530	      1.49259031	     -5.63477396
      2.91000000	      1.83145640	     -3.90004722	     -0.45821696	     -0.32786798	      1.07914397	     -0.27924719	      5.47557334	      6.56024043	     -5.98700537	    -15.42363090	      7.57228491	     -8.51736111	      7.38796667	     -4.93796847	      6.58724130	    -52.23791971	      5.63534220	      9.80379724	     -8.69417680	      1.61523369	     -5.85879646
      2.92000000	      1.83655902	     -4.06215624	     -0.46418309	     -0.33487571	      1.07881834	     -0.28027870	      5.87746400	      6.65788945	     -6.07746266	    -15.40596733	      7.22934298	     -8.50421578	      6.46097869	     -4.91552161	      6.84069189	    -52.11602181	      5.20721184	     11.04833965	     -8.58146877	      1.72456750	     -6.07670153
      2.93000000	      1.82963419	     -4.20458393	     -0.46349246	     -0.34201905	      1.07843052	     -0.28141018	      6.30995152	      6.72650573	     -6.18492112	    -15.40532389	      6.89492275	     -8.47691512	      5.54093840	     -4.87627515	      7.05819837	    -51.84953810	      4.73446157	     12.25347771	     -8.46331267	      1.81632877	     -6.30501692
      2.94000000	      1.80595064	     -4.33220898	     -0.46339805	     -0.34931554	      1.07796959	     -0.28262580	      6.78024128	      6.77289126	     -6.29758034	    -15.42450787	      6.56408329	     -8.44125062	      4.63497298	     -4.82282768	      7.24698045	    -51.43226259	      4.20921855	     13.37711291	     -8.33900013	      1.89264511	     -6.51727666
      2.95000000	      1.76783057	     -4.44924079	     -0.45801654	     -0.35677558	      1.07743342	     -0.28392664	      7.28448308	      6.80289791	     -6.41090652	    -15.46009629	      6.23080736	     -8.40598908	      3.74677963	     -4.75871156	      7.42167548	    -50.86128427	      3.62620376	     14.38384041	     -8.21204127	      1.95764437	     -6.72161901
      2.96000000	      1.71458141	     -4.55251597	     -0.44057170	     -0.36440797	      1.07681597	     -0.28532904	      7.82165366	      6.81140094	     -6.52814206	    -15.50861792	      5.89197163	     -8.38117676	      2.88181914	     -4.68438725	      7.58410624	    -50.12797640	      2.99260940	     15.20590617	     -8.08267704	      2.01063896	     -6.92820688
      2.97000000	      1.64461697	     -4.65243214	     -0.41121262	     -0.37224094	      1.07610777	     -0.28681825	      8.39472581	      6.81079209	     -6.64436957	    -15.56908026	      5.53570027	     -8.37108655	      2.04771615	     -4.61296333	      7.74248925	    -49.23185293	      2.35239503	     15.80332746	     -7.95380461	      2.06066152	     -7.13388945
      2.98000000	      1.55949364	     -4.75234719	     -0.36487327	     -0.38029719	      1.07531017	     -0.28839550	      9.00089185	      6.80363612	     -6.76074341	    -15.63606575	      5.15517620	     -8.37316574	      1.24873557	     -4.55372576	      7.89830613	    -48.17124166	      1.76782472	     16.14853187	     -7.83176592	      2.11235452	     -7.34920570
      2.99000000	      1.43608129	     -4.86136906	     -0.30399422	     -0.38859767	      1.07438308	     -0.29004598	      9.66370349	      6.80082189	     -6.86847439	    -15.70374493	      4.74756077	     -8.37551290	      0.51808242	     -4.52380576	      8.04205564	    -46.95621666	      1.31968061	     16.21075194	     -7.69183986	      2.17470332	     -7.57056977
      3.00000000	      1.34072908	     -4.94300215	     -0.19927343	     -0.39709992	      1.07344124	     -0.29180392	     10.30131370	      6.75395225	     -7.04682751	    -15.75383329	      4.35272443	     -8.38785058	     -0.23002940	     -4.47861706	      8.22430152	    -45.55733822	      1.09777599	     16.03911767	     -7.60478677	      2.20051787	     -7.81271860
      3.01000000	      1.23808947	     -5.05609966	     -0.08369118	     -0.40588546	      1.07240678	     -0.29361371	     10.96489299	      6.73441323	     -7.22296445	    -15.80376730	      3.89914783	     -8.39621583	     -0.93311398	     -4.49850531	      8.36793846	    -44.03424239	      1.21596454	     15.47957543	     -7.54451009	      2.26128733	     -8.04826230
      3.02000000	      1.10288257	     -5.17527884	      0.05324009	     -0.41492204	      1.07126391	     -0.29547408	     11.66018439	      6.71473013	     -7.40238301	    -15.81366646	      3.41513689	     -8.38084551	     -1.55813674	     -4.55802099	      8.48321445	    -42.41266817	      1.72087775	     14.77368310	     -7.47246281	      2.32426302	     -8.29874222
      3.03000000	      0.95537352	     -5.29588036	      0.19618865	     -0.42422888	      1.07005409	     -0.29736030	     12.37015422	      6.69166987	     -7.57706798	    -15.79348370	      2.88572853	     -8.33647046	     -2.11811577	     -4.64682437	      8.55037117	    -40.73463312	      2.62466077	     13.94288636	     -7.41817358	      2.38081430	     -8.54234374
      3.04000000	      0.79931646	     -5.39874141	      0.34364349	     -0.43378221	      1.06880355	     -0.29929357	     13.08158727	      6.64364527	     -7.73523984	    -15.72996720	      2.31844977	     -8.25142904	     -2.60517377	     -4.73791672	      8.55077067	    -39.05213715	      3.88901974	     12.98530406	     -7.38252753	      2.41327075	     -8.78736421
      3.05000000	      0.63567938	     -5.50096281	      0.48789595	     -0.44357022	      1.06753290	     -0.30127409	     13.79036922	      6.58889646	     -7.87630902	    -15.61837073	      1.70618022	     -8.12170274	     -3.01128950	     -4.83325485	      8.49471364	    -37.41341878	      5.44419695	     11.97870914	     -7.36520979	      2.44315409	     -8.99430639
